<?xml version="1.0" encoding="utf-8"?>
<!-- Generator: Adobe Illustrator 23.0.3, SVG Export Plug-In . SVG Version: 6.00 Build 0)  -->
<svg version="1.1" id="Capa_1" xmlns="http://www.w3.org/2000/svg" xmlns:xlink="http://www.w3.org/1999/xlink" x="0px" y="0px"
	 viewBox="0 0 365.3 365.3" style="enable-background:new 0 0 365.3 365.3;" xml:space="preserve">
<style type="text/css">
	.st0{fill:#87B8D7;}
</style>
<g>
	<path class="st0" d="M364.1,335.5c-19.6-32.4-40.4-64.3-60-96.7c-3.7-6.1-14.1-3.7-13.5,3.7c0,14.1,0.6,27.5,0.6,41.6
		c-9.8-10.4-12.2-22.6-14.1-37.3c-1.2-6.1-3.7-12.9-10.4-14.7c-10.4-3.1-22,7.3-30,12.9c-20.2,14.1-38.6,30.6-60.6,42.2
		c-25.7,12.9-26.3-5.5-20.8-25.7c5.5-21.4,15.3-42.8,26.3-61.8c19.6-33,42.2-67.3,47.7-105.9c3.1-21.4-8-53.9-34.9-52.6
		c-33,1.2-71,25.7-92.4,50.2c-12.2,12.2-82,104-88.7,51.4C8.5,104.1,40.3,57,59.3,25.2c2.4-4.3-3.7-8.6-6.7-4.9
		C28.7,49.7,9.7,87,1.2,124.3c-4.3,20.2,2.4,57.5,31.8,49.6c34.3-9.2,56.9-47.7,78.9-73.4c13.5-16.5,34.9-28.8,53.2-38.6
		c39.2-20.8,56.9,9.8,47.1,45.3c-12.2,43.5-43.5,78.9-61.2,120c-6.1,14.7-28.2,63.6-4.3,75.9c27.5,14.1,64.3-20.8,83.8-36.1
		c-1.2,0.6,31.2-25.7,33-20.2c1.8,5.5,1.8,12.2,3.1,18.4c2.4,11.6,7.3,20.8,15.3,28.2c-11.6-0.6-23.3,0-34.9,1.8
		c-6.1,1.2-6.7,10.4-1.8,13.5c34.9,19.6,74.1,24.5,111.4,37.3C362.3,348.3,367.8,341,364.1,335.5z M298,304.3c3.7,0,4.9-3.1,4.3-5.5
		c1.8-1.2,3.1-3.1,3.1-5.5c0-8,0-16.5,0-24.5c12.2,19.6,24.5,38.6,36.7,58.1c-23.3-6.7-47.1-11.6-69.2-20.8
		C280.9,305.5,289.4,304.9,298,304.3z"/>
</g>
</svg>
